<svg xmlns="http://www.w3.org/2000/svg" width="1200" height="675" viewBox="0 0 1200 675" role="img" font-family="Arial, Helvetica, sans-serif" aria-labelledby="title desc"><title id="title">AKTIVKATALOG 1 - Hack.lu CTF 2025 — The credential keeper</title><desc id="desc">A cat librarian guards a secret drawer and a stamped certificate: the exposed unixUserPassword attribute leads into ESC1 and ESC15.</desc><defs><radialGradient id="halo"><stop stop-color="#245148"/><stop offset="1" stop-color="#102822"/></radialGradient><pattern id="dots" width="32" height="32" patternUnits="userSpaceOnUse"><circle cx="1" cy="1" r="1" fill="#a5e5c6" opacity=".12"/></pattern><clipPath id="scene"><rect width="1200" height="555"/></clipPath></defs><rect x="0" y="0" width="1200" height="675" rx="0" fill="#102822"/><ellipse cx="600" cy="319" rx="410" ry="379" fill="url(#halo)"/><rect x="0" y="0" width="1200" height="675" rx="0" fill="url(#dots)"/><circle cx="600" cy="315" r="233" fill="none" stroke="#a5e5c6" stroke-width="1" opacity=".13"/><circle cx="600" cy="315" r="257" fill="none" stroke="#a5e5c6" stroke-width="1" opacity=".08"/><path d="M310 114Q312 119 317 121Q312 123 310 128Q308 123 303 121Q308 119 310 114" fill="#f3d08c"/><path d="M935 474Q937 480 943 482Q937 484 935 490Q933 484 927 482Q933 480 935 474" fill="#f3d08c"/><path d="M873 84Q875 88 879 90Q875 92 873 96Q871 92 867 90Q871 88 873 84" fill="#f3d08c"/><path d="M274 426Q276 428 278 430Q276 432 274 434Q272 432 270 430Q272 428 274 426" fill="#f3d08c"/><g transform="translate(264 35) scale(1.12)" ><ellipse cx="310" cy="468" rx="205" ry="27" fill="#111822" opacity=".35"/><path d="M120 115L395 72L495 138V436L220 478L120 425Z" fill="#245148" stroke="#111822" stroke-width="4" stroke-linecap="round" stroke-linejoin="round"/><path d="M120 115L220 172L495 138M220 172V478" fill="none" stroke="#a5e5c6" stroke-width="2" stroke-linecap="round" stroke-linejoin="round"/><rect x="238" y="189" width="100" height="68" rx="5" fill="#102822" stroke="#a5e5c6" stroke-width="2"/><rect x="270" y="205" width="36" height="14" rx="2" fill="#f3d08c"/><line x1="265" y1="234" x2="310" y2="234" stroke="#a5e5c6" stroke-width="4" stroke-linecap="round"/><rect x="357" y="189" width="100" height="68" rx="5" fill="#102822" stroke="#a5e5c6" stroke-width="2"/><rect x="389" y="205" width="36" height="14" rx="2" fill="#f3d08c"/><line x1="384" y1="234" x2="429" y2="234" stroke="#a5e5c6" stroke-width="4" stroke-linecap="round"/><rect x="238" y="274" width="100" height="68" rx="5" fill="#102822" stroke="#a5e5c6" stroke-width="2"/><rect x="270" y="290" width="36" height="14" rx="2" fill="#f3d08c"/><line x1="265" y1="319" x2="310" y2="319" stroke="#a5e5c6" stroke-width="4" stroke-linecap="round"/><rect x="357" y="274" width="100" height="68" rx="5" fill="#102822" stroke="#a5e5c6" stroke-width="2"/><rect x="389" y="290" width="36" height="14" rx="2" fill="#f3d08c"/><line x1="384" y1="319" x2="429" y2="319" stroke="#a5e5c6" stroke-width="4" stroke-linecap="round"/><rect x="238" y="359" width="100" height="68" rx="5" fill="#102822" stroke="#a5e5c6" stroke-width="2"/><rect x="270" y="375" width="36" height="14" rx="2" fill="#f3d08c"/><line x1="265" y1="404" x2="310" y2="404" stroke="#a5e5c6" stroke-width="4" stroke-linecap="round"/><rect x="357" y="359" width="100" height="68" rx="5" fill="#102822" stroke="#a5e5c6" stroke-width="2"/><rect x="389" y="375" width="36" height="14" rx="2" fill="#f3d08c"/><line x1="384" y1="404" x2="429" y2="404" stroke="#a5e5c6" stroke-width="4" stroke-linecap="round"/><g transform="translate(330 119) scale(0.9)" ><path d="M-50 15Q-60 -13 -53 -62L-24 -41Q0 -48 24 -41L53 -62Q60 -13 50 15Q30 42 0 40Q-30 42 -50 15" fill="#f7f0df" stroke="#111822" stroke-width="4" stroke-linecap="round" stroke-linejoin="round"/><path d="M-44 -44L-29 -31L-46 -22Z M44 -44L29 -31L46 -22Z" fill="#e99fa8"/><ellipse cx="-20" cy="-3" rx="4" ry="7" fill="#111822"/><ellipse cx="20" cy="-3" rx="4" ry="7" fill="#111822"/><path d="M-4 9L0 13L4 9Z" fill="#111822"/><path d="M0 13Q-7 22 -12 15M0 13Q7 22 12 15" fill="none" stroke="#111822" stroke-width="2" stroke-linecap="round" stroke-linejoin="round"/><line x1="-52" y1="7" x2="-35" y2="10" stroke="#111822" stroke-width="2" stroke-linecap="round"/><line x1="35" y1="10" x2="52" y2="7" stroke="#111822" stroke-width="2" stroke-linecap="round"/></g><g transform="translate(320 338) rotate(-12)" ><path d="M0 0H174V32.64Q156 48.0 174 63.36V96H0V63.36Q18 48.0 0 32.64Z" fill="#f7f0df" stroke="#111822" stroke-width="3" stroke-linecap="round" stroke-linejoin="round"/><line x1="125.28" y1="8" x2="125.28" y2="88" stroke="#111822" stroke-width="2" stroke-linecap="round" stroke-dasharray="4 6"/><line x1="22" y1="38.400000000000006" x2="95.7" y2="38.400000000000006" stroke="#111822" stroke-width="3" stroke-linecap="round"/><line x1="22" y1="57.599999999999994" x2="73.08" y2="57.599999999999994" stroke="#111822" stroke-width="3" stroke-linecap="round"/><rect x="142.67999999999998" y="12" width="1" height="72" rx="0" fill="#111822"/><rect x="145.67999999999998" y="12" width="1" height="72" rx="0" fill="#111822"/><rect x="148.67999999999998" y="12" width="1" height="72" rx="0" fill="#111822"/><rect x="151.67999999999998" y="12" width="1" height="72" rx="0" fill="#111822"/><rect x="154.67999999999998" y="12" width="1" height="72" rx="0" fill="#111822"/></g><g transform="translate(410 414) scale(0.5)" ><path d="M-20 15L-27 62L0 47L27 62L20 15" fill="#f3d08c" stroke="#111822" stroke-width="3" stroke-linecap="round" stroke-linejoin="round"/><circle cx="0" cy="0" r="34" fill="#f3d08c" stroke="#111822" stroke-width="3"/><circle cx="0" cy="0" r="24" fill="none" stroke="#111822" stroke-width="2"/><path d="M0 -15Q2 -2 15 0Q2 2 0 15Q-2 2 -15 0Q-2 -2 0 -15" fill="#111822"/></g></g></svg>