<svg xmlns="http://www.w3.org/2000/svg" width="1200" height="675" viewBox="0 0 1200 675" role="img" font-family="Arial, Helvetica, sans-serif" aria-labelledby="title desc"><title id="title">AKTIVKATALOG 2 - Hack.lu CTF 2025 — The midnight archive</title><desc id="desc">An illuminated archive and a flying access pass turn the LDAP relay, RBCD, and final ACL path into a midnight heist.</desc><defs><radialGradient id="halo"><stop stop-color="#252948"/><stop offset="1" stop-color="#101426"/></radialGradient><pattern id="dots" width="32" height="32" patternUnits="userSpaceOnUse"><circle cx="1" cy="1" r="1" fill="#bda9ff" opacity=".12"/></pattern><clipPath id="scene"><rect width="1200" height="555"/></clipPath></defs><rect x="0" y="0" width="1200" height="675" rx="0" fill="#101426"/><ellipse cx="600" cy="319" rx="410" ry="379" fill="url(#halo)"/><rect x="0" y="0" width="1200" height="675" rx="0" fill="url(#dots)"/><circle cx="600" cy="315" r="233" fill="none" stroke="#bda9ff" stroke-width="1" opacity=".13"/><circle cx="600" cy="315" r="257" fill="none" stroke="#bda9ff" stroke-width="1" opacity=".08"/><path d="M310 114Q312 119 317 121Q312 123 310 128Q308 123 303 121Q308 119 310 114" fill="#f495b6"/><path d="M935 474Q937 480 943 482Q937 484 935 490Q933 484 927 482Q933 480 935 474" fill="#f495b6"/><path d="M873 84Q875 88 879 90Q875 92 873 96Q871 92 867 90Q871 88 873 84" fill="#f495b6"/><path d="M274 426Q276 428 278 430Q276 432 274 434Q272 432 270 430Q272 428 274 426" fill="#f495b6"/><g transform="translate(264 35) scale(1.12)" ><ellipse cx="310" cy="468" rx="205" ry="27" fill="#111822" opacity=".35"/><path d="M120 115L395 72L495 138V436L220 478L120 425Z" fill="#252948" stroke="#111822" stroke-width="4" stroke-linecap="round" stroke-linejoin="round"/><path d="M120 115L220 172L495 138M220 172V478" fill="none" stroke="#bda9ff" stroke-width="2" stroke-linecap="round" stroke-linejoin="round"/><rect x="238" y="189" width="100" height="68" rx="5" fill="#101426" stroke="#bda9ff" stroke-width="2"/><rect x="270" y="205" width="36" height="14" rx="2" fill="#f495b6"/><line x1="265" y1="234" x2="310" y2="234" stroke="#bda9ff" stroke-width="4" stroke-linecap="round"/><rect x="357" y="189" width="100" height="68" rx="5" fill="#101426" stroke="#bda9ff" stroke-width="2"/><rect x="389" y="205" width="36" height="14" rx="2" fill="#f495b6"/><line x1="384" y1="234" x2="429" y2="234" stroke="#bda9ff" stroke-width="4" stroke-linecap="round"/><rect x="238" y="274" width="100" height="68" rx="5" fill="#101426" stroke="#bda9ff" stroke-width="2"/><rect x="270" y="290" width="36" height="14" rx="2" fill="#f495b6"/><line x1="265" y1="319" x2="310" y2="319" stroke="#bda9ff" stroke-width="4" stroke-linecap="round"/><rect x="357" y="274" width="100" height="68" rx="5" fill="#101426" stroke="#bda9ff" stroke-width="2"/><rect x="389" y="290" width="36" height="14" rx="2" fill="#f495b6"/><line x1="384" y1="319" x2="429" y2="319" stroke="#bda9ff" stroke-width="4" stroke-linecap="round"/><rect x="238" y="359" width="100" height="68" rx="5" fill="#101426" stroke="#bda9ff" stroke-width="2"/><rect x="270" y="375" width="36" height="14" rx="2" fill="#f495b6"/><line x1="265" y1="404" x2="310" y2="404" stroke="#bda9ff" stroke-width="4" stroke-linecap="round"/><rect x="357" y="359" width="100" height="68" rx="5" fill="#101426" stroke="#bda9ff" stroke-width="2"/><rect x="389" y="375" width="36" height="14" rx="2" fill="#f495b6"/><line x1="384" y1="404" x2="429" y2="404" stroke="#bda9ff" stroke-width="4" stroke-linecap="round"/><path d="M240 390C120 360 140 270 242 276S390 202 313 163" fill="none" stroke="#f495b6" stroke-width="4" stroke-linecap="round" stroke-linejoin="round" stroke-dasharray="8 12"/><g transform="translate(80 220) rotate(-16)" ><path d="M0 0H175V30.6Q157 45.0 175 59.400000000000006V90H0V59.400000000000006Q18 45.0 0 30.6Z" fill="#bda9ff" stroke="#111822" stroke-width="3" stroke-linecap="round" stroke-linejoin="round"/><line x1="126.0" y1="8" x2="126.0" y2="82" stroke="#111822" stroke-width="2" stroke-linecap="round" stroke-dasharray="4 6"/><line x1="22" y1="36.0" x2="96.25000000000001" y2="36.0" stroke="#111822" stroke-width="3" stroke-linecap="round"/><line x1="22" y1="54.0" x2="73.5" y2="54.0" stroke="#111822" stroke-width="3" stroke-linecap="round"/><rect x="143.5" y="12" width="1" height="66" rx="0" fill="#111822"/><rect x="146.5" y="12" width="1" height="66" rx="0" fill="#111822"/><rect x="149.5" y="12" width="1" height="66" rx="0" fill="#111822"/><rect x="152.5" y="12" width="1" height="66" rx="0" fill="#111822"/><rect x="155.5" y="12" width="1" height="66" rx="0" fill="#111822"/></g><g transform="translate(377 384) rotate(-30) scale(0.85)" ><circle cx="0" cy="0" r="18" fill="none" stroke="#f495b6" stroke-width="10"/><path d="M18 0H82V16M62 0V12" fill="none" stroke="#f495b6" stroke-width="10" stroke-linecap="round" stroke-linejoin="round"/></g><path d="M346 83L454 32L416 100L407 77Z" fill="#f7f0df" stroke="#111822" stroke-width="3" stroke-linecap="round" stroke-linejoin="round"/></g></svg>