<svg xmlns="http://www.w3.org/2000/svg" width="1200" height="675" viewBox="0 0 1200 675" role="img" font-family="Arial, Helvetica, sans-serif" aria-labelledby="title desc"><title id="title">Phantom - Vulnlab — Ghost in the domain</title><desc id="desc">A translucent ghost cat floats above a sealed volume. The scene combines VeraCrypt decryption with the almost invisible SPN-less delegation path.</desc><defs><radialGradient id="halo"><stop stop-color="#3e2848"/><stop offset="1" stop-color="#211827"/></radialGradient><pattern id="dots" width="32" height="32" patternUnits="userSpaceOnUse"><circle cx="1" cy="1" r="1" fill="#d2acf7" opacity=".12"/></pattern><clipPath id="scene"><rect width="1200" height="555"/></clipPath></defs><rect x="0" y="0" width="1200" height="675" rx="0" fill="#211827"/><ellipse cx="600" cy="319" rx="410" ry="379" fill="url(#halo)"/><rect x="0" y="0" width="1200" height="675" rx="0" fill="url(#dots)"/><circle cx="600" cy="315" r="233" fill="none" stroke="#d2acf7" stroke-width="1" opacity=".13"/><circle cx="600" cy="315" r="257" fill="none" stroke="#d2acf7" stroke-width="1" opacity=".08"/><path d="M310 114Q312 119 317 121Q312 123 310 128Q308 123 303 121Q308 119 310 114" fill="#f4a9c5"/><path d="M935 474Q937 480 943 482Q937 484 935 490Q933 484 927 482Q933 480 935 474" fill="#f4a9c5"/><path d="M873 84Q875 88 879 90Q875 92 873 96Q871 92 867 90Q871 88 873 84" fill="#f4a9c5"/><path d="M274 426Q276 428 278 430Q276 432 274 434Q272 432 270 430Q272 428 274 426" fill="#f4a9c5"/><g transform="translate(264 35) scale(1.12)" ><ellipse cx="309" cy="462" rx="153" ry="23" fill="#d2acf7" opacity=".1"/><path d="M171 368L178 187L200 132L233 160Q306 110 377 159L411 129L435 188L444 370L403 348L369 378L333 350L298 384L264 350L226 378L194 352Z" fill="#d2acf7" stroke="#111822" stroke-width="4" stroke-linecap="round" stroke-linejoin="round"/><path d="M190 201Q200 151 238 170Q296 139 358 161" fill="none" stroke="#f7f0df" stroke-width="5" stroke-linecap="round" stroke-linejoin="round" opacity=".4"/><ellipse cx="254" cy="230" rx="10" ry="18" fill="#111822"/><ellipse cx="362" cy="230" rx="10" ry="18" fill="#111822"/><path d="M294 251Q309 270 324 251" fill="none" stroke="#111822" stroke-width="4" stroke-linecap="round" stroke-linejoin="round"/><ellipse cx="232" cy="260" rx="17" ry="8" fill="#f4a9c5" opacity=".7"/><ellipse cx="382" cy="260" rx="17" ry="8" fill="#f4a9c5" opacity=".7"/><rect x="265" y="352" width="89" height="70" rx="10" fill="#f4a9c5" stroke="#111822" stroke-width="4"/><path d="M284 352V332A25 25 0 0 1 334 332V352" fill="none" stroke="#f4a9c5" stroke-width="10" stroke-linecap="round" stroke-linejoin="round"/><circle cx="309" cy="381" r="8" fill="#111822"/><rect x="306" y="386" width="6" height="12" rx="0" fill="#111822"/></g></svg>