<svg xmlns="http://www.w3.org/2000/svg" width="1200" height="675" viewBox="0 0 1200 675" role="img" font-family="Arial, Helvetica, sans-serif" aria-labelledby="title desc"><title id="title">Redelegate - Vulnlab — The next connection</title><desc id="desc">A night train and a rerouted ticket connect to account enumeration, control of FS01$, and constrained delegation to a privileged identity.</desc><defs><radialGradient id="halo"><stop stop-color="#554134"/><stop offset="1" stop-color="#29201b"/></radialGradient><pattern id="dots" width="32" height="32" patternUnits="userSpaceOnUse"><circle cx="1" cy="1" r="1" fill="#f3c78b" opacity=".12"/></pattern><clipPath id="scene"><rect width="1200" height="555"/></clipPath></defs><rect x="0" y="0" width="1200" height="675" rx="0" fill="#29201b"/><ellipse cx="600" cy="319" rx="410" ry="379" fill="url(#halo)"/><rect x="0" y="0" width="1200" height="675" rx="0" fill="url(#dots)"/><circle cx="600" cy="315" r="233" fill="none" stroke="#f3c78b" stroke-width="1" opacity=".13"/><circle cx="600" cy="315" r="257" fill="none" stroke="#f3c78b" stroke-width="1" opacity=".08"/><path d="M310 114Q312 119 317 121Q312 123 310 128Q308 123 303 121Q308 119 310 114" fill="#a8d8c4"/><path d="M935 474Q937 480 943 482Q937 484 935 490Q933 484 927 482Q933 480 935 474" fill="#a8d8c4"/><path d="M873 84Q875 88 879 90Q875 92 873 96Q871 92 867 90Q871 88 873 84" fill="#a8d8c4"/><path d="M274 426Q276 428 278 430Q276 432 274 434Q272 432 270 430Q272 428 274 426" fill="#a8d8c4"/><g transform="translate(264 35) scale(1.12)" ><circle cx="345" cy="203" r="132" fill="#a8d8c4" opacity=".12"/><path d="M50 304H172" fill="none" stroke="#f3c78b" stroke-width="3" stroke-linecap="round" stroke-linejoin="round" opacity=".5"/><path d="M50 342H172" fill="none" stroke="#f3c78b" stroke-width="3" stroke-linecap="round" stroke-linejoin="round" opacity=".5"/><path d="M50 380H172" fill="none" stroke="#f3c78b" stroke-width="3" stroke-linecap="round" stroke-linejoin="round" opacity=".5"/><path d="M96 380V280Q96 235 148 235H360Q440 244 508 347L537 380Z" fill="#f7f0df" stroke="#111822" stroke-width="5" stroke-linecap="round" stroke-linejoin="round"/><path d="M337 249Q412 255 456 313H347Z" fill="#554134" stroke="#111822" stroke-width="3" stroke-linecap="round" stroke-linejoin="round"/><rect x="125" y="258" width="48" height="48" rx="8" fill="#554134" stroke="#111822" stroke-width="2"/><rect x="190" y="258" width="48" height="48" rx="8" fill="#554134" stroke="#111822" stroke-width="2"/><rect x="255" y="258" width="48" height="48" rx="8" fill="#554134" stroke="#111822" stroke-width="2"/><path d="M100 337H470L500 362H99Z" fill="#f3c78b"/><line x1="98" y1="394" x2="534" y2="394" stroke="#a8d8c4" stroke-width="5" stroke-linecap="round"/><line x1="85" y1="411" x2="551" y2="411" stroke="#a8d8c4" stroke-width="2" stroke-linecap="round"/><g transform="translate(210 105) rotate(-11)" ><path d="M0 0H209V31.96Q191 47.0 209 62.040000000000006V94H0V62.040000000000006Q18 47.0 0 31.96Z" fill="#a8d8c4" stroke="#111822" stroke-width="3" stroke-linecap="round" stroke-linejoin="round"/><line x1="150.48" y1="8" x2="150.48" y2="86" stroke="#111822" stroke-width="2" stroke-linecap="round" stroke-dasharray="4 6"/><line x1="22" y1="37.6" x2="114.95" y2="37.6" stroke="#111822" stroke-width="3" stroke-linecap="round"/><line x1="22" y1="56.4" x2="87.78" y2="56.4" stroke="#111822" stroke-width="3" stroke-linecap="round"/><rect x="171.38" y="12" width="1" height="70" rx="0" fill="#111822"/><rect x="174.38" y="12" width="1" height="70" rx="0" fill="#111822"/><rect x="177.38" y="12" width="1" height="70" rx="0" fill="#111822"/><rect x="180.38" y="12" width="1" height="70" rx="0" fill="#111822"/><rect x="183.38" y="12" width="1" height="70" rx="0" fill="#111822"/></g><path d="M434 182Q502 201 466 248" fill="none" stroke="#f3c78b" stroke-width="3" stroke-linecap="round" stroke-linejoin="round" stroke-dasharray="5 8"/></g></svg>