<svg xmlns="http://www.w3.org/2000/svg" width="1200" height="675" viewBox="0 0 1200 675" role="img" font-family="Arial, Helvetica, sans-serif" aria-labelledby="title desc"><title id="title">Slonik - Vulnlab — The sleeping database</title><desc id="desc">A little elephant rests on database discs, drawing on the PostgreSQL foothold and the custom backup script used for privilege escalation.</desc><defs><radialGradient id="halo"><stop stop-color="#244259"/><stop offset="1" stop-color="#101e2c"/></radialGradient><pattern id="dots" width="32" height="32" patternUnits="userSpaceOnUse"><circle cx="1" cy="1" r="1" fill="#9dd7ee" opacity=".12"/></pattern><clipPath id="scene"><rect width="1200" height="555"/></clipPath></defs><rect x="0" y="0" width="1200" height="675" rx="0" fill="#101e2c"/><ellipse cx="600" cy="319" rx="410" ry="379" fill="url(#halo)"/><rect x="0" y="0" width="1200" height="675" rx="0" fill="url(#dots)"/><circle cx="600" cy="315" r="233" fill="none" stroke="#9dd7ee" stroke-width="1" opacity=".13"/><circle cx="600" cy="315" r="257" fill="none" stroke="#9dd7ee" stroke-width="1" opacity=".08"/><path d="M310 114Q312 119 317 121Q312 123 310 128Q308 123 303 121Q308 119 310 114" fill="#f9cf87"/><path d="M935 474Q937 480 943 482Q937 484 935 490Q933 484 927 482Q933 480 935 474" fill="#f9cf87"/><path d="M873 84Q875 88 879 90Q875 92 873 96Q871 92 867 90Q871 88 873 84" fill="#f9cf87"/><path d="M274 426Q276 428 278 430Q276 432 274 434Q272 432 270 430Q272 428 274 426" fill="#f9cf87"/><g transform="translate(264 35) scale(1.12)" ><path d="M176 383V414C176 453 452 453 452 414V383" fill="#244259" stroke="#9dd7ee" stroke-width="3" stroke-linecap="round" stroke-linejoin="round"/><ellipse cx="314" cy="383" rx="138" ry="32" fill="#244259" stroke="#9dd7ee" stroke-width="3"/><path d="M176 344V375C176 414 452 414 452 375V344" fill="#244259" stroke="#9dd7ee" stroke-width="3" stroke-linecap="round" stroke-linejoin="round"/><ellipse cx="314" cy="344" rx="138" ry="32" fill="#244259" stroke="#9dd7ee" stroke-width="3"/><path d="M176 305V336C176 375 452 375 452 336V305" fill="#244259" stroke="#9dd7ee" stroke-width="3" stroke-linecap="round" stroke-linejoin="round"/><ellipse cx="314" cy="305" rx="138" ry="32" fill="#244259" stroke="#9dd7ee" stroke-width="3"/><path d="M195 298V194Q195 125 274 125H350Q420 125 420 195V280Q420 337 375 334Q346 334 346 312Q347 295 366 298L366 239H348V297H300V265H252V297Z" fill="#9dd7ee" stroke="#111822" stroke-width="4" stroke-linecap="round" stroke-linejoin="round"/><ellipse cx="309" cy="213" rx="47" ry="65" fill="#244259" stroke="#111822" stroke-width="4"/><path d="M303 173Q272 207 307 251" fill="none" stroke="#9dd7ee" stroke-width="4" stroke-linecap="round" stroke-linejoin="round"/><circle cx="376" cy="191" r="6" fill="#111822"/><path d="M396 231Q425 233 438 211Q439 243 408 249" fill="#f7f0df" stroke="#111822" stroke-width="3" stroke-linecap="round" stroke-linejoin="round"/><path d="M196 195Q153 179 158 227" fill="none" stroke="#9dd7ee" stroke-width="10" stroke-linecap="round" stroke-linejoin="round"/><path d="M467 123Q469 139 485 141Q469 143 467 159Q465 143 449 141Q465 139 467 123" fill="#f9cf87"/></g></svg>